<?xml version="1.0" standalone="no"?>
<!DOCTYPE svg PUBLIC "-//W3C//DTD SVG 20010904//EN"
 "http://www.w3.org/TR/2001/REC-SVG-20010904/DTD/svg10.dtd">
<svg version="1.0" xmlns="http://www.w3.org/2000/svg"
 width="886.000000pt" height="200.000000pt" viewBox="0 0 886.000000 200.000000"
 preserveAspectRatio="xMidYMid meet">

<g transform="translate(0.000000,200.000000) scale(0.100000,-0.100000)"
fill="#000000" stroke="none">
<path d="M893 1989 c-221 -21 -429 -121 -595 -285 -440 -437 -374 -1160 139
-1515 398 -275 930 -219 1273 133 365 376 365 990 1 1365 -220 226 -507 332
-818 302z"/>
<path d="M4490 1705 l0 -295 675 0 675 0 0 -205 0 -205 -675 0 -675 0 0 -300
0 -300 675 0 675 0 0 -200 0 -200 330 0 330 0 0 1000 0 1000 -1005 0 -1005 0
0 -295z"/>
<path d="M6830 1000 l0 -1000 1015 0 1015 0 0 295 0 295 -705 0 -705 0 0 410
0 410 705 0 705 0 0 295 0 295 -1015 0 -1015 0 0 -1000z"/>
<path d="M2572 992 c-309 -538 -562 -981 -562 -985 0 -4 509 -7 1131 -7 1022
0 1131 2 1125 16 -13 33 -1120 1954 -1126 1954 -4 0 -260 -440 -568 -978z"/>
</g>
</svg>
