<?xml version="1.0" standalone="no"?>
<!DOCTYPE svg PUBLIC "-//W3C//DTD SVG 20010904//EN"
 "http://www.w3.org/TR/2001/REC-SVG-20010904/DTD/svg10.dtd">
<svg version="1.0" xmlns="http://www.w3.org/2000/svg"
 width="300.000000pt" height="109.000000pt" viewBox="0 0 300.000000 109.000000"
 preserveAspectRatio="xMidYMid meet">
<metadata>
Created by potrace 1.10, written by Peter Selinger 2001-2011
</metadata>
<g transform="translate(0.000000,109.000000) scale(0.100000,-0.100000)"
fill="#000000" stroke="none">
<path d="M335 1079 c-107 -16 -152 -38 -219 -105 -78 -77 -107 -151 -108 -268
-1 -154 61 -266 190 -343 39 -23 42 -28 42 -69 0 -48 -1 -48 67 -35 26 5 82
15 123 21 117 18 122 20 117 41 -4 14 8 25 47 47 132 76 210 236 186 385 -35
218 -226 358 -445 326z m205 -61 c53 -26 131 -97 161 -148 46 -77 53 -201 18
-295 -37 -99 -145 -193 -251 -219 -26 -6 -28 -4 -28 24 0 22 5 30 18 30 34 0
118 48 154 88 38 42 65 94 75 145 5 25 3 27 -26 27 -31 0 -31 0 -31 56 l0 55
-52 -3 -53 -3 -5 -50 -5 -50 -59 -3 c-44 -2 -57 0 -54 10 3 7 23 14 47 16 27
2 41 7 38 15 -2 7 -18 11 -39 9 -34 -3 -58 11 -44 26 4 3 27 5 51 3 36 -1 45
1 45 14 0 13 -10 15 -57 13 l-58 -3 -3 -52 c-2 -38 -7 -53 -18 -53 -10 0 -14
12 -14 43 0 54 -13 67 -66 67 l-43 0 -3 -52 c-2 -40 -7 -54 -20 -56 -14 -3
-17 6 -20 50 -2 39 -7 53 -18 53 -11 0 -15 -12 -15 -50 0 -48 -1 -50 -30 -53
-16 -2 -34 -7 -39 -12 -13 -13 46 -130 85 -169 32 -32 120 -81 145 -81 11 0
27 -51 19 -59 -2 -1 -27 5 -54 14 -205 68 -306 285 -221 473 65 141 181 214
335 209 63 -2 92 -8 135 -29z m-220 -309 c0 -35 -3 -39 -25 -39 -23 0 -25 4
-25 44 0 41 1 43 25 38 22 -4 25 -10 25 -43z m280 31 c0 -15 -7 -20 -24 -20
-29 0 -44 19 -25 31 25 16 49 10 49 -11z m0 -60 c0 -14 11 -25 30 -33 l30 -13
-23 -40 c-46 -83 -91 -121 -176 -149 l-53 -17 5 -39 c5 -36 3 -39 -18 -39 -21
0 -24 5 -27 42 -3 41 -4 42 -55 56 -65 18 -126 69 -158 133 -14 26 -25 52 -25
56 0 4 82 7 182 6 216 -3 228 -1 228 32 0 21 5 25 30 25 24 0 30 -4 30 -20z
m-230 -365 c0 -22 -83 -35 -95 -15 -4 6 -2 16 4 23 13 16 91 10 91 -8z"/>
<path d="M1944 721 c-84 -14 -132 -75 -121 -154 7 -54 46 -90 124 -112 64 -18
93 -39 93 -65 0 -35 -26 -43 -115 -36 l-85 6 0 -44 c0 -42 1 -44 38 -50 65
-10 172 -6 207 8 34 15 71 68 60 86 -3 6 -1 10 5 10 7 0 9 8 4 23 -4 12 -8 29
-9 37 -3 34 -17 57 -38 68 -38 19 -111 49 -137 57 -41 13 -50 34 -23 60 13 14
32 16 102 14 l86 -4 3 41 3 42 -48 6 c-93 13 -108 14 -149 7z m114 -37 c12 -4
22 -9 22 -13 0 -4 -10 -7 -22 -8 -93 -2 -100 -4 -129 -32 -16 -16 -29 -34 -29
-39 0 -24 59 -70 110 -87 61 -20 93 -44 110 -84 16 -39 -9 -94 -54 -115 -34
-16 -138 -22 -170 -10 -34 13 -13 23 49 23 83 0 114 20 115 73 0 45 -23 66
-110 98 -71 27 -101 61 -95 109 5 41 11 49 49 72 31 19 106 25 154 13z"/>
<path d="M1090 716 c0 -8 94 -191 101 -196 23 -19 33 -64 34 -155 l0 -100 58
-3 58 -3 -2 105 c-2 71 1 110 10 119 12 15 121 224 121 232 0 3 -27 5 -61 5
l-61 0 -31 -70 c-18 -38 -34 -70 -37 -70 -3 1 -19 32 -37 70 l-32 70 -61 0
c-33 0 -60 -2 -60 -4z m129 -85 c40 -77 71 -79 118 -6 32 49 58 72 65 58 8
-14 3 -28 -45 -121 -53 -104 -55 -112 -56 -199 -1 -55 -3 -63 -20 -63 -16 0
-19 10 -23 88 -5 81 -9 94 -57 185 -28 54 -49 103 -46 108 11 16 44 -10 64
-50z"/>
<path d="M1512 704 c-21 -15 -22 -20 -22 -212 0 -108 5 -204 10 -212 7 -12 40
-16 155 -20 l145 -5 0 48 0 47 -94 0 c-102 0 -106 2 -106 61 l0 29 93 0 92 0
0 45 0 45 -93 0 -93 0 3 48 3 47 98 3 97 3 0 44 0 45 -133 0 c-104 0 -137 -3
-155 -16z m243 -24 c3 -5 0 -10 -7 -11 -7 -1 -31 -2 -53 -4 -22 -1 -48 -3 -58
-3 -31 -3 -67 -48 -67 -85 0 -51 37 -80 103 -82 72 -1 70 -19 -3 -25 -71 -6
-100 -26 -100 -70 0 -48 38 -80 97 -80 63 0 99 -10 81 -21 -18 -12 -189 -11
-208 1 -12 7 -15 42 -17 177 -1 92 0 176 3 185 3 9 15 19 27 21 46 9 196 7
202 -3z"/>
<path d="M2880 490 l0 -231 43 3 42 3 0 225 0 225 -42 3 -43 3 0 -231z"/>
<path d="M2254 582 c-51 -24 -74 -75 -74 -163 0 -69 18 -119 51 -143 25 -17
110 -21 182 -10 34 6 37 9 37 40 l0 34 -70 -6 c-73 -7 -120 9 -120 41 0 11 21
15 103 17 l102 3 -3 55 c-2 30 -8 68 -14 83 -22 56 -123 81 -194 49z m114 -74
c7 -7 12 -22 12 -35 0 -21 -4 -23 -60 -23 -53 0 -60 2 -60 19 0 11 7 27 16 35
18 19 75 21 92 4z m-124 -66 c15 -18 15 -20 -3 -41 -19 -22 -19 -22 -26 -2 -5
18 1 61 9 61 2 0 10 -8 20 -18z"/>
<path d="M2520 470 c0 -180 23 -218 124 -206 59 7 58 7 114 0 l42 -6 0 166 0
166 -42 0 -43 0 3 -125 c3 -116 2 -125 -15 -125 -10 0 -28 -3 -40 -6 -14 -4
-28 1 -42 15 -19 19 -21 33 -21 131 l0 110 -40 0 -40 0 0 -120z"/>
<path d="M477 260 c-15 -5 -74 -16 -132 -26 -91 -16 -105 -21 -105 -37 0 -17
5 -19 33 -13 52 11 138 26 192 32 58 7 88 21 82 37 -5 15 -34 18 -70 7z"/>
<path d="M370 170 c-89 -18 -134 -32 -132 -39 7 -31 47 -71 71 -71 15 0 31 -8
39 -20 17 -28 76 -27 96 1 10 15 21 20 35 16 17 -4 27 4 47 38 30 52 30 99 -1
102 -11 0 -81 -11 -155 -27z m140 -28 c0 -23 -22 -43 -75 -70 l-39 -20 -53 26
c-29 15 -52 31 -50 37 4 10 141 43 190 44 20 1 27 -4 27 -17z"/>
<path d="M734 178 c3 -13 9 -47 12 -76 6 -50 8 -53 33 -50 22 3 26 9 29 41 4
50 22 47 22 -4 0 -38 2 -40 27 -37 25 3 29 8 35 53 4 27 10 60 13 72 4 16 1
23 -9 23 -16 0 -26 -30 -26 -77 0 -53 -18 -38 -25 22 -6 43 -11 55 -25 55 -14
0 -19 -12 -25 -55 -7 -63 -25 -74 -25 -16 0 50 -8 71 -27 71 -11 0 -14 -6 -9
-22z"/>
<path d="M920 125 c0 -60 3 -75 15 -75 11 0 15 11 15 41 0 33 3 40 18 37 13
-3 16 -12 15 -41 -2 -30 1 -37 16 -37 17 0 18 6 14 43 -7 62 -10 67 -38 67
-18 0 -25 5 -25 20 0 11 -7 20 -15 20 -12 0 -15 -15 -15 -75z"/>
<path d="M1196 192 c-2 -4 -4 -38 -4 -75 0 -60 2 -67 20 -67 15 0 19 5 15 20
-4 16 0 20 17 20 49 0 77 78 37 100 -23 12 -78 13 -85 2z m72 -44 c-2 -15 -11
-24 -25 -26 -19 -3 -23 1 -23 22 0 21 5 26 26 26 21 0 25 -4 22 -22z"/>
<path d="M1987 181 c4 -15 -1 -20 -23 -23 -36 -4 -53 -44 -36 -83 10 -21 18
-25 52 -25 l40 0 0 75 c0 67 -2 75 -19 75 -14 0 -18 -5 -14 -19z m1 -74 c3
-22 -1 -27 -17 -27 -15 0 -21 6 -21 23 0 46 33 49 38 4z"/>
<path d="M2090 125 l0 -75 33 0 c46 0 65 18 73 66 8 53 -18 84 -71 84 l-35 0
0 -75z m78 22 c7 -34 -7 -67 -28 -67 -17 0 -20 7 -20 46 0 41 2 45 22 42 13
-2 24 -11 26 -21z"/>
<path d="M2530 125 c0 -60 3 -75 15 -75 12 0 15 15 15 75 0 60 -3 75 -15 75
-12 0 -15 -15 -15 -75z"/>
<path d="M1052 151 c-14 -9 -19 -71 -7 -90 9 -15 58 -14 73 1 7 7 12 26 12 43
0 17 -5 36 -12 43 -14 14 -47 15 -66 3z m46 -48 c-2 -17 -9 -28 -18 -28 -9 0
-16 11 -18 28 -3 22 1 27 18 27 17 0 21 -5 18 -27z"/>
<path d="M1320 120 c0 -21 -3 -45 -6 -54 -4 -12 0 -16 16 -16 19 0 22 4 18 34
-3 29 0 37 20 46 29 13 21 24 -19 26 -27 2 -29 -1 -29 -36z"/>
<path d="M1411 146 c-7 -8 -11 -32 -9 -53 3 -37 4 -38 47 -41 32 -2 42 0 38
10 -2 7 -10 12 -17 10 -20 -4 -51 9 -44 19 3 5 17 8 32 7 19 -2 27 2 30 15 8
40 -51 65 -77 33z"/>
<path d="M1510 85 c0 -60 3 -75 15 -75 8 0 15 9 15 19 0 14 8 21 28 23 24 3
27 7 30 47 4 50 -6 61 -55 61 l-33 0 0 -75z m66 30 c6 -16 -12 -45 -27 -45 -5
0 -9 14 -9 30 0 32 26 43 36 15z"/>
<path d="M1627 154 c-12 -12 4 -24 31 -24 29 0 20 -16 -13 -22 -14 -2 -20 -11
-20 -28 0 -22 5 -25 43 -28 l42 -3 0 36 c0 51 -15 75 -49 75 -15 0 -31 -3 -34
-6z"/>
<path d="M1736 151 c-1 -3 -3 -27 -4 -53 -1 -41 1 -48 18 -48 16 0 18 5 13 34
-4 28 -2 35 16 41 32 10 26 32 -9 32 -17 0 -32 -3 -34 -6z"/>
<path d="M1824 134 c-26 -39 -9 -78 35 -82 18 -2 38 1 44 7 8 8 7 11 -3 12 -8
1 -19 2 -25 4 -5 1 -16 3 -23 3 -7 1 -10 7 -7 12 4 6 19 9 33 8 27 -3 31 8 17
50 -8 22 -53 14 -71 -14z"/>
<path d="M2234 152 c-17 -11 -26 -60 -14 -82 13 -24 80 -29 80 -6 0 9 -9 14
-24 13 -14 -1 -24 3 -23 8 1 6 12 9 25 7 17 -2 22 2 22 21 0 38 -36 60 -66 39z"/>
<path d="M2318 154 c-4 -3 -3 -17 3 -31 5 -13 9 -35 9 -49 0 -20 5 -24 29 -24
23 0 30 5 34 29 3 16 9 40 13 55 5 19 2 26 -9 26 -10 0 -18 -14 -22 -40 -8
-50 -23 -52 -27 -3 -3 34 -17 51 -30 37z"/>
<path d="M2430 141 c-14 -26 -13 -64 2 -79 16 -16 81 -16 76 0 -3 7 -15 13
-28 13 -13 0 -25 6 -28 13 -3 9 5 12 24 10 21 -2 29 2 32 15 9 42 -57 66 -78
28z"/>
<path d="M2596 144 c-34 -33 -12 -94 34 -94 31 0 50 22 50 59 0 25 -26 51 -50
51 -10 0 -26 -7 -34 -16z m52 -41 c-2 -17 -9 -28 -18 -28 -9 0 -16 11 -18 28
-3 22 1 27 18 27 17 0 21 -5 18 -27z"/>
<path d="M2700 101 c0 -33 -3 -66 -6 -75 -4 -12 0 -16 16 -16 17 0 21 4 17 20
-4 16 0 20 17 20 31 0 46 18 46 55 0 40 -16 55 -57 55 l-33 0 0 -59z m58 2
c-2 -17 -9 -28 -18 -28 -9 0 -16 11 -18 28 -3 22 1 27 18 27 17 0 21 -5 18
-27z"/>
<path d="M2821 146 c-7 -8 -11 -32 -9 -53 3 -37 4 -38 41 -38 36 0 54 19 19
21 -37 2 -43 4 -37 14 3 6 17 7 31 4 29 -7 41 14 24 45 -12 24 -52 28 -69 7z"/>
<path d="M2920 103 c0 -40 4 -53 15 -53 10 0 15 10 15 34 0 26 5 36 20 41 33
11 23 31 -15 31 l-35 0 0 -53z"/>
</g>
</svg>
