<?xml version="1.0" standalone="no"?>
<!DOCTYPE svg PUBLIC "-//W3C//DTD SVG 20010904//EN"
 "http://www.w3.org/TR/2001/REC-SVG-20010904/DTD/svg10.dtd">
<svg version="1.0" xmlns="http://www.w3.org/2000/svg"
 width="406.000000pt" height="99.000000pt" viewBox="0 0 406.000000 99.000000"
 preserveAspectRatio="xMidYMid meet">

<g transform="translate(0.000000,99.000000) scale(0.100000,-0.100000)"
fill="#000000" stroke="none">
<path d="M3254 965 c-14 -14 -30 -38 -35 -53 -5 -15 -30 -40 -54 -57 -25 -16
-68 -58 -97 -92 -28 -35 -53 -63 -54 -63 -2 0 -14 4 -29 10 -35 13 -79 -10
-101 -52 -18 -34 -21 -107 -10 -198 6 -41 -1 -104 -23 -243 -17 -103 -31 -194
-31 -202 0 -12 16 -15 74 -15 84 0 80 -4 91 88 l7 52 130 0 129 0 -7 -70 -7
-70 83 0 c67 0 81 3 77 14 -3 8 -1 44 5 80 8 50 8 73 -1 93 -10 21 -9 29 3 42
18 20 40 142 32 182 -5 24 -2 29 14 29 26 0 26 -3 -10 -225 -16 -102 -30 -192
-30 -200 0 -13 34 -15 233 -15 201 0 237 2 267 18 53 26 75 69 95 179 9 54 25
141 35 193 l19 94 -24 41 c-13 22 -47 66 -76 98 l-52 58 2 88 c1 48 -3 100 -9
115 -10 26 -14 28 -49 23 -21 -2 -55 -16 -76 -30 l-37 -25 -51 23 c-62 28
-187 55 -255 55 -33 0 -54 5 -63 16 -14 17 -62 44 -79 44 -6 0 -22 -11 -36
-25z m86 -35 c30 -25 43 -29 96 -30 67 0 182 -27 257 -59 l49 -21 60 37 c75
46 79 41 76 -89 l-2 -96 60 -69 c64 -72 94 -112 94 -125 0 -5 -81 -8 -181 -8
l-180 0 -15 35 c-21 50 -18 107 6 133 12 12 23 22 26 22 13 0 61 -30 78 -49
19 -21 46 -28 46 -12 0 15 -78 80 -104 87 -57 14 -101 -48 -93 -130 2 -28 8
-59 12 -68 7 -17 -14 -18 -348 -18 -394 0 -374 -4 -384 70 -7 48 20 125 47
140 26 14 48 4 96 -42 49 -47 69 -35 30 17 l-26 34 66 70 c36 39 81 80 100 92
19 11 34 26 34 32 0 20 39 77 53 77 7 0 28 -13 47 -30z m-68 -640 l-4 -30
-127 0 -128 0 5 30 4 30 127 0 128 0 -5 -30z m584 -47 c-4 -37 -12 -73 -18
-80 -7 -9 -44 -13 -129 -13 -135 0 -126 -8 -108 97 l11 63 125 0 126 0 -7 -67z"/>
<path d="M3203 639 c-16 -16 -5 -39 17 -39 25 0 35 18 20 35 -15 18 -22 19
-37 4z"/>
<path d="M3280 618 c0 -22 26 -41 47 -34 10 3 25 1 32 -4 9 -5 22 -5 33 1 25
13 23 32 -2 24 -12 -4 -27 -2 -33 4 -8 6 -18 6 -27 1 -10 -6 -21 -4 -32 7 -16
14 -18 14 -18 1z"/>
<path d="M3547 613 c-12 -12 -7 -41 7 -46 19 -7 40 18 32 38 -6 15 -28 20 -39
8z"/>
<path d="M0 456 c0 -2 45 -75 101 -161 l101 -157 -7 -52 c-4 -28 -9 -59 -11
-68 -5 -16 3 -18 74 -18 l79 0 11 66 c11 64 13 67 110 172 55 59 110 116 122
127 l23 20 -6 -30 c-3 -16 -13 -84 -23 -150 -15 -105 -16 -124 -3 -150 24 -51
43 -55 295 -55 l232 0 11 63 c6 35 11 67 11 70 0 4 -84 7 -187 7 -104 0 -195
5 -203 10 -34 21 12 29 186 32 229 4 230 4 249 170 7 52 5 59 -19 82 l-25 26
-323 0 -323 0 -86 -92 -86 -92 -54 92 -54 92 -97 0 c-54 0 -98 -2 -98 -4z
m1000 -156 c0 -19 -7 -20 -129 -20 -124 0 -129 1 -124 20 5 19 14 20 129 20
117 0 124 -1 124 -20z"/>
<path d="M1245 451 c-47 -20 -74 -85 -75 -182 0 -82 3 -84 203 -87 167 -3 175
-4 170 -23 -5 -18 -16 -19 -203 -19 l-197 0 -7 -46 c-3 -26 -6 -58 -6 -71 l0
-24 249 3 c247 3 250 3 275 27 29 28 49 105 44 178 -4 68 -18 73 -215 73 -156
0 -161 1 -156 20 5 19 14 20 199 20 178 0 194 1 194 18 0 9 3 41 6 70 l7 52
-234 -1 c-129 0 -243 -4 -254 -8z"/>
<path d="M1837 450 c-66 -20 -88 -68 -113 -240 -15 -110 -16 -129 -3 -155 24
-51 44 -55 281 -55 245 0 222 -9 234 92 l6 58 -179 0 c-99 0 -182 2 -185 5 -5
5 4 73 17 133 5 22 7 22 189 22 209 0 188 -10 202 98 l7 52 -214 -1 c-118 0
-227 -5 -242 -9z"/>
<path d="M2377 450 c-66 -20 -88 -68 -113 -240 -15 -110 -16 -129 -3 -155 24
-50 46 -55 254 -55 267 0 282 9 315 195 27 148 26 197 -4 232 l-24 28 -199 2
c-109 1 -211 -2 -226 -7z m309 -153 c2 -7 -1 -42 -8 -77 l-13 -65 -114 -3
c-63 -1 -120 -1 -126 2 -14 5 1 122 18 144 14 17 236 17 243 -1z"/>
</g>
</svg>
